<?xml version="1.0" encoding="utf-8" standalone="no"?>
<!DOCTYPE svg PUBLIC "-//W3C//DTD SVG 1.1//EN"
  "http://www.w3.org/Graphics/SVG/1.1/DTD/svg11.dtd">
<svg xmlns:xlink="http://www.w3.org/1999/xlink" width="720pt" height="288pt" viewBox="0 0 720 288" xmlns="http://www.w3.org/2000/svg" version="1.1">
 <metadata>
  <rdf:RDF xmlns:dc="http://purl.org/dc/elements/1.1/" xmlns:cc="http://creativecommons.org/ns#" xmlns:rdf="http://www.w3.org/1999/02/22-rdf-syntax-ns#">
   <cc:Work>
    <dc:type rdf:resource="http://purl.org/dc/dcmitype/StillImage"/>
    <dc:date>2026-02-10T22:19:52.051510</dc:date>
    <dc:format>image/svg+xml</dc:format>
    <dc:creator>
     <cc:Agent>
      <dc:title>Matplotlib v3.10.8, https://matplotlib.org/</dc:title>
     </cc:Agent>
    </dc:creator>
   </cc:Work>
  </rdf:RDF>
 </metadata>
 <defs>
  <style type="text/css">*{stroke-linejoin: round; stroke-linecap: butt}</style>
 </defs>
 <g id="figure_1">
  <g id="patch_1">
   <path d="M 0 288 
L 720 288 
L 720 0 
L 0 0 
z
" style="fill: #ffffff"/>
  </g>
  <g id="axes_1">
   <g id="patch_2">
    <path d="M 57.17 246.04 
L 709.2 246.04 
L 709.2 26.88 
L 57.17 26.88 
z
" style="fill: #ffffff"/>
   </g>
   <g id="patch_3">
    <path d="M 86.807727 246.04 
L 96.68697 246.04 
L 96.68697 243.089291 
L 86.807727 243.089291 
z
" clip-path="url(#p548c3b7f22)" style="fill: #1f77b4"/>
   </g>
   <g id="patch_4">
    <path d="M 96.68697 246.04 
L 106.566212 246.04 
L 106.566212 245.8847 
L 96.68697 245.8847 
z
" clip-path="url(#p548c3b7f22)" style="fill: #1f77b4"/>
   </g>
   <g id="patch_5">
    <path d="M 106.566212 246.04 
L 116.445455 246.04 
L 116.445455 246.04 
L 106.566212 246.04 
z
" clip-path="url(#p548c3b7f22)" style="fill: #1f77b4"/>
   </g>
   <g id="patch_6">
    <path d="M 116.445455 246.04 
L 126.324697 246.04 
L 126.324697 246.04 
L 116.445455 246.04 
z
" clip-path="url(#p548c3b7f22)" style="fill: #1f77b4"/>
   </g>
   <g id="patch_7">
    <path d="M 126.324697 246.04 
L 136.203939 246.04 
L 136.203939 246.04 
L 126.324697 246.04 
z
" clip-path="url(#p548c3b7f22)" style="fill: #1f77b4"/>
   </g>
   <g id="patch_8">
    <path d="M 136.203939 246.04 
L 146.083182 246.04 
L 146.083182 246.04 
L 136.203939 246.04 
z
" clip-path="url(#p548c3b7f22)" style="fill: #1f77b4"/>
   </g>
   <g id="patch_9">
    <path d="M 146.083182 246.04 
L 155.962424 246.04 
L 155.962424 246.04 
L 146.083182 246.04 
z
" clip-path="url(#p548c3b7f22)" style="fill: #1f77b4"/>
   </g>
   <g id="patch_10">
    <path d="M 155.962424 246.04 
L 165.841667 246.04 
L 165.841667 246.04 
L 155.962424 246.04 
z
" clip-path="url(#p548c3b7f22)" style="fill: #1f77b4"/>
   </g>
   <g id="patch_11">
    <path d="M 165.841667 246.04 
L 175.720909 246.04 
L 175.720909 246.04 
L 165.841667 246.04 
z
" clip-path="url(#p548c3b7f22)" style="fill: #1f77b4"/>
   </g>
   <g id="patch_12">
    <path d="M 175.720909 246.04 
L 185.600152 246.04 
L 185.600152 246.04 
L 175.720909 246.04 
z
" clip-path="url(#p548c3b7f22)" style="fill: #1f77b4"/>
   </g>
   <g id="patch_13">
    <path d="M 185.600152 246.04 
L 195.479394 246.04 
L 195.479394 246.04 
L 185.600152 246.04 
z
" clip-path="url(#p548c3b7f22)" style="fill: #1f77b4"/>
   </g>
   <g id="patch_14">
    <path d="M 195.479394 246.04 
L 205.358636 246.04 
L 205.358636 246.04 
L 195.479394 246.04 
z
" clip-path="url(#p548c3b7f22)" style="fill: #1f77b4"/>
   </g>
   <g id="patch_15">
    <path d="M 205.358636 246.04 
L 215.237879 246.04 
L 215.237879 246.04 
L 205.358636 246.04 
z
" clip-path="url(#p548c3b7f22)" style="fill: #1f77b4"/>
   </g>
   <g id="patch_16">
    <path d="M 215.237879 246.04 
L 225.117121 246.04 
L 225.117121 246.04 
L 215.237879 246.04 
z
" clip-path="url(#p548c3b7f22)" style="fill: #1f77b4"/>
   </g>
   <g id="patch_17">
    <path d="M 225.117121 246.04 
L 234.996364 246.04 
L 234.996364 246.04 
L 225.117121 246.04 
z
" clip-path="url(#p548c3b7f22)" style="fill: #1f77b4"/>
   </g>
   <g id="patch_18">
    <path d="M 234.996364 246.04 
L 244.875606 246.04 
L 244.875606 246.04 
L 234.996364 246.04 
z
" clip-path="url(#p548c3b7f22)" style="fill: #1f77b4"/>
   </g>
   <g id="patch_19">
    <path d="M 244.875606 246.04 
L 254.754848 246.04 
L 254.754848 245.8847 
L 244.875606 245.8847 
z
" clip-path="url(#p548c3b7f22)" style="fill: #1f77b4"/>
   </g>
   <g id="patch_20">
    <path d="M 254.754848 246.04 
L 264.634091 246.04 
L 264.634091 246.04 
L 254.754848 246.04 
z
" clip-path="url(#p548c3b7f22)" style="fill: #1f77b4"/>
   </g>
   <g id="patch_21">
    <path d="M 264.634091 246.04 
L 274.513333 246.04 
L 274.513333 245.418798 
L 264.634091 245.418798 
z
" clip-path="url(#p548c3b7f22)" style="fill: #1f77b4"/>
   </g>
   <g id="patch_22">
    <path d="M 274.513333 246.04 
L 284.392576 246.04 
L 284.392576 245.418798 
L 274.513333 245.418798 
z
" clip-path="url(#p548c3b7f22)" style="fill: #1f77b4"/>
   </g>
   <g id="patch_23">
    <path d="M 284.392576 246.04 
L 294.271818 246.04 
L 294.271818 245.574099 
L 284.392576 245.574099 
z
" clip-path="url(#p548c3b7f22)" style="fill: #1f77b4"/>
   </g>
   <g id="patch_24">
    <path d="M 294.271818 246.04 
L 304.151061 246.04 
L 304.151061 245.263498 
L 294.271818 245.263498 
z
" clip-path="url(#p548c3b7f22)" style="fill: #1f77b4"/>
   </g>
   <g id="patch_25">
    <path d="M 304.151061 246.04 
L 314.030303 246.04 
L 314.030303 243.399892 
L 304.151061 243.399892 
z
" clip-path="url(#p548c3b7f22)" style="fill: #1f77b4"/>
   </g>
   <g id="patch_26">
    <path d="M 314.030303 246.04 
L 323.909545 246.04 
L 323.909545 243.244592 
L 314.030303 243.244592 
z
" clip-path="url(#p548c3b7f22)" style="fill: #1f77b4"/>
   </g>
   <g id="patch_27">
    <path d="M 323.909545 246.04 
L 333.788788 246.04 
L 333.788788 243.089291 
L 323.909545 243.089291 
z
" clip-path="url(#p548c3b7f22)" style="fill: #1f77b4"/>
   </g>
   <g id="patch_28">
    <path d="M 333.788788 246.04 
L 343.66803 246.04 
L 343.66803 240.449184 
L 333.788788 240.449184 
z
" clip-path="url(#p548c3b7f22)" style="fill: #1f77b4"/>
   </g>
   <g id="patch_29">
    <path d="M 343.66803 246.04 
L 353.547273 246.04 
L 353.547273 235.79017 
L 343.66803 235.79017 
z
" clip-path="url(#p548c3b7f22)" style="fill: #1f77b4"/>
   </g>
   <g id="patch_30">
    <path d="M 353.547273 246.04 
L 363.426515 246.04 
L 363.426515 232.37356 
L 353.547273 232.37356 
z
" clip-path="url(#p548c3b7f22)" style="fill: #1f77b4"/>
   </g>
   <g id="patch_31">
    <path d="M 363.426515 246.04 
L 373.305758 246.04 
L 373.305758 222.279031 
L 363.426515 222.279031 
z
" clip-path="url(#p548c3b7f22)" style="fill: #1f77b4"/>
   </g>
   <g id="patch_32">
    <path d="M 373.305758 246.04 
L 383.185 246.04 
L 383.185 206.904286 
L 373.305758 206.904286 
z
" clip-path="url(#p548c3b7f22)" style="fill: #1f77b4"/>
   </g>
   <g id="patch_33">
    <path d="M 383.185 246.04 
L 393.064242 246.04 
L 393.064242 194.324949 
L 383.185 194.324949 
z
" clip-path="url(#p548c3b7f22)" style="fill: #1f77b4"/>
   </g>
   <g id="patch_34">
    <path d="M 393.064242 246.04 
L 402.943485 246.04 
L 402.943485 171.651083 
L 393.064242 171.651083 
z
" clip-path="url(#p548c3b7f22)" style="fill: #1f77b4"/>
   </g>
   <g id="patch_35">
    <path d="M 402.943485 246.04 
L 412.822727 246.04 
L 412.822727 165.594365 
L 402.943485 165.594365 
z
" clip-path="url(#p548c3b7f22)" style="fill: #1f77b4"/>
   </g>
   <g id="patch_36">
    <path d="M 412.822727 246.04 
L 422.70197 246.04 
L 422.70197 125.992749 
L 412.822727 125.992749 
z
" clip-path="url(#p548c3b7f22)" style="fill: #1f77b4"/>
   </g>
   <g id="patch_37">
    <path d="M 422.70197 246.04 
L 432.581212 246.04 
L 432.581212 117.140624 
L 422.70197 117.140624 
z
" clip-path="url(#p548c3b7f22)" style="fill: #1f77b4"/>
   </g>
   <g id="patch_38">
    <path d="M 432.581212 246.04 
L 442.460455 246.04 
L 442.460455 100.989376 
L 432.581212 100.989376 
z
" clip-path="url(#p548c3b7f22)" style="fill: #1f77b4"/>
   </g>
   <g id="patch_39">
    <path d="M 442.460455 246.04 
L 452.339697 246.04 
L 452.339697 77.694308 
L 442.460455 77.694308 
z
" clip-path="url(#p548c3b7f22)" style="fill: #1f77b4"/>
   </g>
   <g id="patch_40">
    <path d="M 452.339697 246.04 
L 462.218939 246.04 
L 462.218939 71.792891 
L 452.339697 71.792891 
z
" clip-path="url(#p548c3b7f22)" style="fill: #1f77b4"/>
   </g>
   <g id="patch_41">
    <path d="M 462.218939 246.04 
L 472.098182 246.04 
L 472.098182 66.357375 
L 462.218939 66.357375 
z
" clip-path="url(#p548c3b7f22)" style="fill: #1f77b4"/>
   </g>
   <g id="patch_42">
    <path d="M 472.098182 246.04 
L 481.977424 246.04 
L 481.977424 67.444478 
L 472.098182 67.444478 
z
" clip-path="url(#p548c3b7f22)" style="fill: #1f77b4"/>
   </g>
   <g id="patch_43">
    <path d="M 481.977424 246.04 
L 491.856667 246.04 
L 491.856667 58.902954 
L 481.977424 58.902954 
z
" clip-path="url(#p548c3b7f22)" style="fill: #1f77b4"/>
   </g>
   <g id="patch_44">
    <path d="M 491.856667 246.04 
L 501.735909 246.04 
L 501.735909 37.31619 
L 491.856667 37.31619 
z
" clip-path="url(#p548c3b7f22)" style="fill: #1f77b4"/>
   </g>
   <g id="patch_45">
    <path d="M 501.735909 246.04 
L 511.615152 246.04 
L 511.615152 51.293231 
L 501.735909 51.293231 
z
" clip-path="url(#p548c3b7f22)" style="fill: #1f77b4"/>
   </g>
   <g id="patch_46">
    <path d="M 511.615152 246.04 
L 521.494394 246.04 
L 521.494394 51.137931 
L 511.615152 51.137931 
z
" clip-path="url(#p548c3b7f22)" style="fill: #1f77b4"/>
   </g>
   <g id="patch_47">
    <path d="M 521.494394 246.04 
L 531.373636 246.04 
L 531.373636 80.489717 
L 521.494394 80.489717 
z
" clip-path="url(#p548c3b7f22)" style="fill: #1f77b4"/>
   </g>
   <g id="patch_48">
    <path d="M 531.373636 246.04 
L 541.252879 246.04 
L 541.252879 105.64839 
L 531.373636 105.64839 
z
" clip-path="url(#p548c3b7f22)" style="fill: #1f77b4"/>
   </g>
   <g id="patch_49">
    <path d="M 541.252879 246.04 
L 551.132121 246.04 
L 551.132121 113.568713 
L 541.252879 113.568713 
z
" clip-path="url(#p548c3b7f22)" style="fill: #1f77b4"/>
   </g>
   <g id="patch_50">
    <path d="M 551.132121 246.04 
L 561.011364 246.04 
L 561.011364 130.030561 
L 551.132121 130.030561 
z
" clip-path="url(#p548c3b7f22)" style="fill: #1f77b4"/>
   </g>
   <g id="patch_51">
    <path d="M 561.011364 246.04 
L 570.890606 246.04 
L 570.890606 146.958311 
L 561.011364 146.958311 
z
" clip-path="url(#p548c3b7f22)" style="fill: #1f77b4"/>
   </g>
   <g id="patch_52">
    <path d="M 570.890606 246.04 
L 580.769848 246.04 
L 580.769848 177.5525 
L 570.890606 177.5525 
z
" clip-path="url(#p548c3b7f22)" style="fill: #1f77b4"/>
   </g>
   <g id="patch_53">
    <path d="M 580.769848 246.04 
L 590.649091 246.04 
L 590.649091 187.491729 
L 580.769848 187.491729 
z
" clip-path="url(#p548c3b7f22)" style="fill: #1f77b4"/>
   </g>
   <g id="patch_54">
    <path d="M 590.649091 246.04 
L 600.528333 246.04 
L 600.528333 200.692268 
L 590.649091 200.692268 
z
" clip-path="url(#p548c3b7f22)" style="fill: #1f77b4"/>
   </g>
   <g id="patch_55">
    <path d="M 600.528333 246.04 
L 610.407576 246.04 
L 610.407576 214.048107 
L 600.528333 214.048107 
z
" clip-path="url(#p548c3b7f22)" style="fill: #1f77b4"/>
   </g>
   <g id="patch_56">
    <path d="M 610.407576 246.04 
L 620.286818 246.04 
L 620.286818 224.142636 
L 610.407576 224.142636 
z
" clip-path="url(#p548c3b7f22)" style="fill: #1f77b4"/>
   </g>
   <g id="patch_57">
    <path d="M 620.286818 246.04 
L 630.166061 246.04 
L 630.166061 232.528861 
L 620.286818 232.528861 
z
" clip-path="url(#p548c3b7f22)" style="fill: #1f77b4"/>
   </g>
   <g id="patch_58">
    <path d="M 630.166061 246.04 
L 640.045303 246.04 
L 640.045303 239.05148 
L 630.166061 239.05148 
z
" clip-path="url(#p548c3b7f22)" style="fill: #1f77b4"/>
   </g>
   <g id="patch_59">
    <path d="M 640.045303 246.04 
L 649.924545 246.04 
L 649.924545 238.896179 
L 640.045303 238.896179 
z
" clip-path="url(#p548c3b7f22)" style="fill: #1f77b4"/>
   </g>
   <g id="patch_60">
    <path d="M 649.924545 246.04 
L 659.803788 246.04 
L 659.803788 238.740879 
L 649.924545 238.740879 
z
" clip-path="url(#p548c3b7f22)" style="fill: #1f77b4"/>
   </g>
   <g id="patch_61">
    <path d="M 659.803788 246.04 
L 669.68303 246.04 
L 669.68303 242.46809 
L 659.803788 242.46809 
z
" clip-path="url(#p548c3b7f22)" style="fill: #1f77b4"/>
   </g>
   <g id="patch_62">
    <path d="M 669.68303 246.04 
L 679.562273 246.04 
L 679.562273 245.108197 
L 669.68303 245.108197 
z
" clip-path="url(#p548c3b7f22)" style="fill: #1f77b4"/>
   </g>
   <g id="matplotlib.axis_1">
    <g id="xtick_1">
     <g id="line2d_1">
      <path d="M 86.807727 246.04 
L 86.807727 26.88 
" clip-path="url(#p548c3b7f22)" style="fill: none; stroke: #b0b0b0; stroke-width: 0.8; stroke-linecap: square"/>
     </g>
     <g id="line2d_2">
      <defs>
       <path id="mcfa2e8ef5f" d="M 0 0 
L 0 3.5 
" style="stroke: #000000; stroke-width: 0.8"/>
      </defs>
      <g>
       <use xlink:href="#mcfa2e8ef5f" x="86.807727" y="246.04" style="stroke: #000000; stroke-width: 0.8"/>
      </g>
     </g>
     <g id="text_1">
      <!-- −40 -->
      <g transform="translate(76.255384 260.638438) scale(0.1 -0.1)">
       <defs>
        <path id="DejaVuSans-2212" d="M 678 2272 
L 4684 2272 
L 4684 1741 
L 678 1741 
L 678 2272 
z
" transform="scale(0.015625)"/>
        <path id="DejaVuSans-34" d="M 2419 4116 
L 825 1625 
L 2419 1625 
L 2419 4116 
z
M 2253 4666 
L 3047 4666 
L 3047 1625 
L 3713 1625 
L 3713 1100 
L 3047 1100 
L 3047 0 
L 2419 0 
L 2419 1100 
L 313 1100 
L 313 1709 
L 2253 4666 
z
" transform="scale(0.015625)"/>
        <path id="DejaVuSans-30" d="M 2034 4250 
Q 1547 4250 1301 3770 
Q 1056 3291 1056 2328 
Q 1056 1369 1301 889 
Q 1547 409 2034 409 
Q 2525 409 2770 889 
Q 3016 1369 3016 2328 
Q 3016 3291 2770 3770 
Q 2525 4250 2034 4250 
z
M 2034 4750 
Q 2819 4750 3233 4129 
Q 3647 3509 3647 2328 
Q 3647 1150 3233 529 
Q 2819 -91 2034 -91 
Q 1250 -91 836 529 
Q 422 1150 422 2328 
Q 422 3509 836 4129 
Q 1250 4750 2034 4750 
z
" transform="scale(0.015625)"/>
       </defs>
       <use xlink:href="#DejaVuSans-2212"/>
       <use xlink:href="#DejaVuSans-34" transform="translate(83.789062 0)"/>
       <use xlink:href="#DejaVuSans-30" transform="translate(147.412109 0)"/>
      </g>
     </g>
    </g>
    <g id="xtick_2">
     <g id="line2d_3">
      <path d="M 209.467747 246.04 
L 209.467747 26.88 
" clip-path="url(#p548c3b7f22)" style="fill: none; stroke: #b0b0b0; stroke-width: 0.8; stroke-linecap: square"/>
     </g>
     <g id="line2d_4">
      <g>
       <use xlink:href="#mcfa2e8ef5f" x="209.467747" y="246.04" style="stroke: #000000; stroke-width: 0.8"/>
      </g>
     </g>
     <g id="text_2">
      <!-- −20 -->
      <g transform="translate(198.915403 260.638438) scale(0.1 -0.1)">
       <defs>
        <path id="DejaVuSans-32" d="M 1228 531 
L 3431 531 
L 3431 0 
L 469 0 
L 469 531 
Q 828 903 1448 1529 
Q 2069 2156 2228 2338 
Q 2531 2678 2651 2914 
Q 2772 3150 2772 3378 
Q 2772 3750 2511 3984 
Q 2250 4219 1831 4219 
Q 1534 4219 1204 4116 
Q 875 4013 500 3803 
L 500 4441 
Q 881 4594 1212 4672 
Q 1544 4750 1819 4750 
Q 2544 4750 2975 4387 
Q 3406 4025 3406 3419 
Q 3406 3131 3298 2873 
Q 3191 2616 2906 2266 
Q 2828 2175 2409 1742 
Q 1991 1309 1228 531 
z
" transform="scale(0.015625)"/>
       </defs>
       <use xlink:href="#DejaVuSans-2212"/>
       <use xlink:href="#DejaVuSans-32" transform="translate(83.789062 0)"/>
       <use xlink:href="#DejaVuSans-30" transform="translate(147.412109 0)"/>
      </g>
     </g>
    </g>
    <g id="xtick_3">
     <g id="line2d_5">
      <path d="M 332.127767 246.04 
L 332.127767 26.88 
" clip-path="url(#p548c3b7f22)" style="fill: none; stroke: #b0b0b0; stroke-width: 0.8; stroke-linecap: square"/>
     </g>
     <g id="line2d_6">
      <g>
       <use xlink:href="#mcfa2e8ef5f" x="332.127767" y="246.04" style="stroke: #000000; stroke-width: 0.8"/>
      </g>
     </g>
     <g id="text_3">
      <!-- 0 -->
      <g transform="translate(328.946517 260.638438) scale(0.1 -0.1)">
       <use xlink:href="#DejaVuSans-30"/>
      </g>
     </g>
    </g>
    <g id="xtick_4">
     <g id="line2d_7">
      <path d="M 454.787787 246.04 
L 454.787787 26.88 
" clip-path="url(#p548c3b7f22)" style="fill: none; stroke: #b0b0b0; stroke-width: 0.8; stroke-linecap: square"/>
     </g>
     <g id="line2d_8">
      <g>
       <use xlink:href="#mcfa2e8ef5f" x="454.787787" y="246.04" style="stroke: #000000; stroke-width: 0.8"/>
      </g>
     </g>
     <g id="text_4">
      <!-- 20 -->
      <g transform="translate(448.425287 260.638438) scale(0.1 -0.1)">
       <use xlink:href="#DejaVuSans-32"/>
       <use xlink:href="#DejaVuSans-30" transform="translate(63.623047 0)"/>
      </g>
     </g>
    </g>
    <g id="xtick_5">
     <g id="line2d_9">
      <path d="M 577.447806 246.04 
L 577.447806 26.88 
" clip-path="url(#p548c3b7f22)" style="fill: none; stroke: #b0b0b0; stroke-width: 0.8; stroke-linecap: square"/>
     </g>
     <g id="line2d_10">
      <g>
       <use xlink:href="#mcfa2e8ef5f" x="577.447806" y="246.04" style="stroke: #000000; stroke-width: 0.8"/>
      </g>
     </g>
     <g id="text_5">
      <!-- 40 -->
      <g transform="translate(571.085306 260.638438) scale(0.1 -0.1)">
       <use xlink:href="#DejaVuSans-34"/>
       <use xlink:href="#DejaVuSans-30" transform="translate(63.623047 0)"/>
      </g>
     </g>
    </g>
    <g id="xtick_6">
     <g id="line2d_11">
      <path d="M 700.107826 246.04 
L 700.107826 26.88 
" clip-path="url(#p548c3b7f22)" style="fill: none; stroke: #b0b0b0; stroke-width: 0.8; stroke-linecap: square"/>
     </g>
     <g id="line2d_12">
      <g>
       <use xlink:href="#mcfa2e8ef5f" x="700.107826" y="246.04" style="stroke: #000000; stroke-width: 0.8"/>
      </g>
     </g>
     <g id="text_6">
      <!-- 60 -->
      <g transform="translate(693.745326 260.638438) scale(0.1 -0.1)">
       <defs>
        <path id="DejaVuSans-36" d="M 2113 2584 
Q 1688 2584 1439 2293 
Q 1191 2003 1191 1497 
Q 1191 994 1439 701 
Q 1688 409 2113 409 
Q 2538 409 2786 701 
Q 3034 994 3034 1497 
Q 3034 2003 2786 2293 
Q 2538 2584 2113 2584 
z
M 3366 4563 
L 3366 3988 
Q 3128 4100 2886 4159 
Q 2644 4219 2406 4219 
Q 1781 4219 1451 3797 
Q 1122 3375 1075 2522 
Q 1259 2794 1537 2939 
Q 1816 3084 2150 3084 
Q 2853 3084 3261 2657 
Q 3669 2231 3669 1497 
Q 3669 778 3244 343 
Q 2819 -91 2113 -91 
Q 1303 -91 875 529 
Q 447 1150 447 2328 
Q 447 3434 972 4092 
Q 1497 4750 2381 4750 
Q 2619 4750 2861 4703 
Q 3103 4656 3366 4563 
z
" transform="scale(0.015625)"/>
       </defs>
       <use xlink:href="#DejaVuSans-36"/>
       <use xlink:href="#DejaVuSans-30" transform="translate(63.623047 0)"/>
      </g>
     </g>
    </g>
    <g id="text_7">
     <!-- Temperature (F) -->
     <g transform="translate(343.149063 274.316562) scale(0.1 -0.1)">
      <defs>
       <path id="DejaVuSans-54" d="M -19 4666 
L 3928 4666 
L 3928 4134 
L 2272 4134 
L 2272 0 
L 1638 0 
L 1638 4134 
L -19 4134 
L -19 4666 
z
" transform="scale(0.015625)"/>
       <path id="DejaVuSans-65" d="M 3597 1894 
L 3597 1613 
L 953 1613 
Q 991 1019 1311 708 
Q 1631 397 2203 397 
Q 2534 397 2845 478 
Q 3156 559 3463 722 
L 3463 178 
Q 3153 47 2828 -22 
Q 2503 -91 2169 -91 
Q 1331 -91 842 396 
Q 353 884 353 1716 
Q 353 2575 817 3079 
Q 1281 3584 2069 3584 
Q 2775 3584 3186 3129 
Q 3597 2675 3597 1894 
z
M 3022 2063 
Q 3016 2534 2758 2815 
Q 2500 3097 2075 3097 
Q 1594 3097 1305 2825 
Q 1016 2553 972 2059 
L 3022 2063 
z
" transform="scale(0.015625)"/>
       <path id="DejaVuSans-6d" d="M 3328 2828 
Q 3544 3216 3844 3400 
Q 4144 3584 4550 3584 
Q 5097 3584 5394 3201 
Q 5691 2819 5691 2113 
L 5691 0 
L 5113 0 
L 5113 2094 
Q 5113 2597 4934 2840 
Q 4756 3084 4391 3084 
Q 3944 3084 3684 2787 
Q 3425 2491 3425 1978 
L 3425 0 
L 2847 0 
L 2847 2094 
Q 2847 2600 2669 2842 
Q 2491 3084 2119 3084 
Q 1678 3084 1418 2786 
Q 1159 2488 1159 1978 
L 1159 0 
L 581 0 
L 581 3500 
L 1159 3500 
L 1159 2956 
Q 1356 3278 1631 3431 
Q 1906 3584 2284 3584 
Q 2666 3584 2933 3390 
Q 3200 3197 3328 2828 
z
" transform="scale(0.015625)"/>
       <path id="DejaVuSans-70" d="M 1159 525 
L 1159 -1331 
L 581 -1331 
L 581 3500 
L 1159 3500 
L 1159 2969 
Q 1341 3281 1617 3432 
Q 1894 3584 2278 3584 
Q 2916 3584 3314 3078 
Q 3713 2572 3713 1747 
Q 3713 922 3314 415 
Q 2916 -91 2278 -91 
Q 1894 -91 1617 61 
Q 1341 213 1159 525 
z
M 3116 1747 
Q 3116 2381 2855 2742 
Q 2594 3103 2138 3103 
Q 1681 3103 1420 2742 
Q 1159 2381 1159 1747 
Q 1159 1113 1420 752 
Q 1681 391 2138 391 
Q 2594 391 2855 752 
Q 3116 1113 3116 1747 
z
" transform="scale(0.015625)"/>
       <path id="DejaVuSans-72" d="M 2631 2963 
Q 2534 3019 2420 3045 
Q 2306 3072 2169 3072 
Q 1681 3072 1420 2755 
Q 1159 2438 1159 1844 
L 1159 0 
L 581 0 
L 581 3500 
L 1159 3500 
L 1159 2956 
Q 1341 3275 1631 3429 
Q 1922 3584 2338 3584 
Q 2397 3584 2469 3576 
Q 2541 3569 2628 3553 
L 2631 2963 
z
" transform="scale(0.015625)"/>
       <path id="DejaVuSans-61" d="M 2194 1759 
Q 1497 1759 1228 1600 
Q 959 1441 959 1056 
Q 959 750 1161 570 
Q 1363 391 1709 391 
Q 2188 391 2477 730 
Q 2766 1069 2766 1631 
L 2766 1759 
L 2194 1759 
z
M 3341 1997 
L 3341 0 
L 2766 0 
L 2766 531 
Q 2569 213 2275 61 
Q 1981 -91 1556 -91 
Q 1019 -91 701 211 
Q 384 513 384 1019 
Q 384 1609 779 1909 
Q 1175 2209 1959 2209 
L 2766 2209 
L 2766 2266 
Q 2766 2663 2505 2880 
Q 2244 3097 1772 3097 
Q 1472 3097 1187 3025 
Q 903 2953 641 2809 
L 641 3341 
Q 956 3463 1253 3523 
Q 1550 3584 1831 3584 
Q 2591 3584 2966 3190 
Q 3341 2797 3341 1997 
z
" transform="scale(0.015625)"/>
       <path id="DejaVuSans-74" d="M 1172 4494 
L 1172 3500 
L 2356 3500 
L 2356 3053 
L 1172 3053 
L 1172 1153 
Q 1172 725 1289 603 
Q 1406 481 1766 481 
L 2356 481 
L 2356 0 
L 1766 0 
Q 1100 0 847 248 
Q 594 497 594 1153 
L 594 3053 
L 172 3053 
L 172 3500 
L 594 3500 
L 594 4494 
L 1172 4494 
z
" transform="scale(0.015625)"/>
       <path id="DejaVuSans-75" d="M 544 1381 
L 544 3500 
L 1119 3500 
L 1119 1403 
Q 1119 906 1312 657 
Q 1506 409 1894 409 
Q 2359 409 2629 706 
Q 2900 1003 2900 1516 
L 2900 3500 
L 3475 3500 
L 3475 0 
L 2900 0 
L 2900 538 
Q 2691 219 2414 64 
Q 2138 -91 1772 -91 
Q 1169 -91 856 284 
Q 544 659 544 1381 
z
M 1991 3584 
L 1991 3584 
z
" transform="scale(0.015625)"/>
       <path id="DejaVuSans-20" transform="scale(0.015625)"/>
       <path id="DejaVuSans-28" d="M 1984 4856 
Q 1566 4138 1362 3434 
Q 1159 2731 1159 2009 
Q 1159 1288 1364 580 
Q 1569 -128 1984 -844 
L 1484 -844 
Q 1016 -109 783 600 
Q 550 1309 550 2009 
Q 550 2706 781 3412 
Q 1013 4119 1484 4856 
L 1984 4856 
z
" transform="scale(0.015625)"/>
       <path id="DejaVuSans-46" d="M 628 4666 
L 3309 4666 
L 3309 4134 
L 1259 4134 
L 1259 2759 
L 3109 2759 
L 3109 2228 
L 1259 2228 
L 1259 0 
L 628 0 
L 628 4666 
z
" transform="scale(0.015625)"/>
       <path id="DejaVuSans-29" d="M 513 4856 
L 1013 4856 
Q 1481 4119 1714 3412 
Q 1947 2706 1947 2009 
Q 1947 1309 1714 600 
Q 1481 -109 1013 -844 
L 513 -844 
Q 928 -128 1133 580 
Q 1338 1288 1338 2009 
Q 1338 2731 1133 3434 
Q 928 4138 513 4856 
z
" transform="scale(0.015625)"/>
      </defs>
      <use xlink:href="#DejaVuSans-54"/>
      <use xlink:href="#DejaVuSans-65" transform="translate(44.083984 0)"/>
      <use xlink:href="#DejaVuSans-6d" transform="translate(105.607422 0)"/>
      <use xlink:href="#DejaVuSans-70" transform="translate(203.019531 0)"/>
      <use xlink:href="#DejaVuSans-65" transform="translate(266.496094 0)"/>
      <use xlink:href="#DejaVuSans-72" transform="translate(328.019531 0)"/>
      <use xlink:href="#DejaVuSans-61" transform="translate(369.132812 0)"/>
      <use xlink:href="#DejaVuSans-74" transform="translate(430.412109 0)"/>
      <use xlink:href="#DejaVuSans-75" transform="translate(469.621094 0)"/>
      <use xlink:href="#DejaVuSans-72" transform="translate(533 0)"/>
      <use xlink:href="#DejaVuSans-65" transform="translate(571.863281 0)"/>
      <use xlink:href="#DejaVuSans-20" transform="translate(633.386719 0)"/>
      <use xlink:href="#DejaVuSans-28" transform="translate(665.173828 0)"/>
      <use xlink:href="#DejaVuSans-46" transform="translate(704.1875 0)"/>
      <use xlink:href="#DejaVuSans-29" transform="translate(761.707031 0)"/>
     </g>
    </g>
   </g>
   <g id="matplotlib.axis_2">
    <g id="ytick_1">
     <g id="line2d_13">
      <path d="M 57.17 246.04 
L 709.2 246.04 
" clip-path="url(#p548c3b7f22)" style="fill: none; stroke: #b0b0b0; stroke-width: 0.8; stroke-linecap: square"/>
     </g>
     <g id="line2d_14">
      <defs>
       <path id="m70666e88c2" d="M 0 0 
L -3.5 0 
" style="stroke: #000000; stroke-width: 0.8"/>
      </defs>
      <g>
       <use xlink:href="#m70666e88c2" x="57.17" y="246.04" style="stroke: #000000; stroke-width: 0.8"/>
      </g>
     </g>
     <g id="text_8">
      <!-- 0 -->
      <g transform="translate(43.8075 249.839219) scale(0.1 -0.1)">
       <use xlink:href="#DejaVuSans-30"/>
      </g>
     </g>
    </g>
    <g id="ytick_2">
     <g id="line2d_15">
      <path d="M 57.17 214.979909 
L 709.2 214.979909 
" clip-path="url(#p548c3b7f22)" style="fill: none; stroke: #b0b0b0; stroke-width: 0.8; stroke-linecap: square"/>
     </g>
     <g id="line2d_16">
      <g>
       <use xlink:href="#m70666e88c2" x="57.17" y="214.979909" style="stroke: #000000; stroke-width: 0.8"/>
      </g>
     </g>
     <g id="text_9">
      <!-- 200 -->
      <g transform="translate(31.0825 218.779128) scale(0.1 -0.1)">
       <use xlink:href="#DejaVuSans-32"/>
       <use xlink:href="#DejaVuSans-30" transform="translate(63.623047 0)"/>
       <use xlink:href="#DejaVuSans-30" transform="translate(127.246094 0)"/>
      </g>
     </g>
    </g>
    <g id="ytick_3">
     <g id="line2d_17">
      <path d="M 57.17 183.919819 
L 709.2 183.919819 
" clip-path="url(#p548c3b7f22)" style="fill: none; stroke: #b0b0b0; stroke-width: 0.8; stroke-linecap: square"/>
     </g>
     <g id="line2d_18">
      <g>
       <use xlink:href="#m70666e88c2" x="57.17" y="183.919819" style="stroke: #000000; stroke-width: 0.8"/>
      </g>
     </g>
     <g id="text_10">
      <!-- 400 -->
      <g transform="translate(31.0825 187.719037) scale(0.1 -0.1)">
       <use xlink:href="#DejaVuSans-34"/>
       <use xlink:href="#DejaVuSans-30" transform="translate(63.623047 0)"/>
       <use xlink:href="#DejaVuSans-30" transform="translate(127.246094 0)"/>
      </g>
     </g>
    </g>
    <g id="ytick_4">
     <g id="line2d_19">
      <path d="M 57.17 152.859728 
L 709.2 152.859728 
" clip-path="url(#p548c3b7f22)" style="fill: none; stroke: #b0b0b0; stroke-width: 0.8; stroke-linecap: square"/>
     </g>
     <g id="line2d_20">
      <g>
       <use xlink:href="#m70666e88c2" x="57.17" y="152.859728" style="stroke: #000000; stroke-width: 0.8"/>
      </g>
     </g>
     <g id="text_11">
      <!-- 600 -->
      <g transform="translate(31.0825 156.658947) scale(0.1 -0.1)">
       <use xlink:href="#DejaVuSans-36"/>
       <use xlink:href="#DejaVuSans-30" transform="translate(63.623047 0)"/>
       <use xlink:href="#DejaVuSans-30" transform="translate(127.246094 0)"/>
      </g>
     </g>
    </g>
    <g id="ytick_5">
     <g id="line2d_21">
      <path d="M 57.17 121.799637 
L 709.2 121.799637 
" clip-path="url(#p548c3b7f22)" style="fill: none; stroke: #b0b0b0; stroke-width: 0.8; stroke-linecap: square"/>
     </g>
     <g id="line2d_22">
      <g>
       <use xlink:href="#m70666e88c2" x="57.17" y="121.799637" style="stroke: #000000; stroke-width: 0.8"/>
      </g>
     </g>
     <g id="text_12">
      <!-- 800 -->
      <g transform="translate(31.0825 125.598856) scale(0.1 -0.1)">
       <defs>
        <path id="DejaVuSans-38" d="M 2034 2216 
Q 1584 2216 1326 1975 
Q 1069 1734 1069 1313 
Q 1069 891 1326 650 
Q 1584 409 2034 409 
Q 2484 409 2743 651 
Q 3003 894 3003 1313 
Q 3003 1734 2745 1975 
Q 2488 2216 2034 2216 
z
M 1403 2484 
Q 997 2584 770 2862 
Q 544 3141 544 3541 
Q 544 4100 942 4425 
Q 1341 4750 2034 4750 
Q 2731 4750 3128 4425 
Q 3525 4100 3525 3541 
Q 3525 3141 3298 2862 
Q 3072 2584 2669 2484 
Q 3125 2378 3379 2068 
Q 3634 1759 3634 1313 
Q 3634 634 3220 271 
Q 2806 -91 2034 -91 
Q 1263 -91 848 271 
Q 434 634 434 1313 
Q 434 1759 690 2068 
Q 947 2378 1403 2484 
z
M 1172 3481 
Q 1172 3119 1398 2916 
Q 1625 2713 2034 2713 
Q 2441 2713 2670 2916 
Q 2900 3119 2900 3481 
Q 2900 3844 2670 4047 
Q 2441 4250 2034 4250 
Q 1625 4250 1398 4047 
Q 1172 3844 1172 3481 
z
" transform="scale(0.015625)"/>
       </defs>
       <use xlink:href="#DejaVuSans-38"/>
       <use xlink:href="#DejaVuSans-30" transform="translate(63.623047 0)"/>
       <use xlink:href="#DejaVuSans-30" transform="translate(127.246094 0)"/>
      </g>
     </g>
    </g>
    <g id="ytick_6">
     <g id="line2d_23">
      <path d="M 57.17 90.739546 
L 709.2 90.739546 
" clip-path="url(#p548c3b7f22)" style="fill: none; stroke: #b0b0b0; stroke-width: 0.8; stroke-linecap: square"/>
     </g>
     <g id="line2d_24">
      <g>
       <use xlink:href="#m70666e88c2" x="57.17" y="90.739546" style="stroke: #000000; stroke-width: 0.8"/>
      </g>
     </g>
     <g id="text_13">
      <!-- 1000 -->
      <g transform="translate(24.72 94.538765) scale(0.1 -0.1)">
       <defs>
        <path id="DejaVuSans-31" d="M 794 531 
L 1825 531 
L 1825 4091 
L 703 3866 
L 703 4441 
L 1819 4666 
L 2450 4666 
L 2450 531 
L 3481 531 
L 3481 0 
L 794 0 
L 794 531 
z
" transform="scale(0.015625)"/>
       </defs>
       <use xlink:href="#DejaVuSans-31"/>
       <use xlink:href="#DejaVuSans-30" transform="translate(63.623047 0)"/>
       <use xlink:href="#DejaVuSans-30" transform="translate(127.246094 0)"/>
       <use xlink:href="#DejaVuSans-30" transform="translate(190.869141 0)"/>
      </g>
     </g>
    </g>
    <g id="ytick_7">
     <g id="line2d_25">
      <path d="M 57.17 59.679456 
L 709.2 59.679456 
" clip-path="url(#p548c3b7f22)" style="fill: none; stroke: #b0b0b0; stroke-width: 0.8; stroke-linecap: square"/>
     </g>
     <g id="line2d_26">
      <g>
       <use xlink:href="#m70666e88c2" x="57.17" y="59.679456" style="stroke: #000000; stroke-width: 0.8"/>
      </g>
     </g>
     <g id="text_14">
      <!-- 1200 -->
      <g transform="translate(24.72 63.478675) scale(0.1 -0.1)">
       <use xlink:href="#DejaVuSans-31"/>
       <use xlink:href="#DejaVuSans-32" transform="translate(63.623047 0)"/>
       <use xlink:href="#DejaVuSans-30" transform="translate(127.246094 0)"/>
       <use xlink:href="#DejaVuSans-30" transform="translate(190.869141 0)"/>
      </g>
     </g>
    </g>
    <g id="ytick_8">
     <g id="line2d_27">
      <path d="M 57.17 28.619365 
L 709.2 28.619365 
" clip-path="url(#p548c3b7f22)" style="fill: none; stroke: #b0b0b0; stroke-width: 0.8; stroke-linecap: square"/>
     </g>
     <g id="line2d_28">
      <g>
       <use xlink:href="#m70666e88c2" x="57.17" y="28.619365" style="stroke: #000000; stroke-width: 0.8"/>
      </g>
     </g>
     <g id="text_15">
      <!-- 1400 -->
      <g transform="translate(24.72 32.418584) scale(0.1 -0.1)">
       <use xlink:href="#DejaVuSans-31"/>
       <use xlink:href="#DejaVuSans-34" transform="translate(63.623047 0)"/>
       <use xlink:href="#DejaVuSans-30" transform="translate(127.246094 0)"/>
       <use xlink:href="#DejaVuSans-30" transform="translate(190.869141 0)"/>
      </g>
     </g>
    </g>
    <g id="text_16">
     <!-- Frequency -->
     <g transform="translate(18.640312 162.289687) rotate(-90) scale(0.1 -0.1)">
      <defs>
       <path id="DejaVuSans-71" d="M 947 1747 
Q 947 1113 1208 752 
Q 1469 391 1925 391 
Q 2381 391 2643 752 
Q 2906 1113 2906 1747 
Q 2906 2381 2643 2742 
Q 2381 3103 1925 3103 
Q 1469 3103 1208 2742 
Q 947 2381 947 1747 
z
M 2906 525 
Q 2725 213 2448 61 
Q 2172 -91 1784 -91 
Q 1150 -91 751 415 
Q 353 922 353 1747 
Q 353 2572 751 3078 
Q 1150 3584 1784 3584 
Q 2172 3584 2448 3432 
Q 2725 3281 2906 2969 
L 2906 3500 
L 3481 3500 
L 3481 -1331 
L 2906 -1331 
L 2906 525 
z
" transform="scale(0.015625)"/>
       <path id="DejaVuSans-6e" d="M 3513 2113 
L 3513 0 
L 2938 0 
L 2938 2094 
Q 2938 2591 2744 2837 
Q 2550 3084 2163 3084 
Q 1697 3084 1428 2787 
Q 1159 2491 1159 1978 
L 1159 0 
L 581 0 
L 581 3500 
L 1159 3500 
L 1159 2956 
Q 1366 3272 1645 3428 
Q 1925 3584 2291 3584 
Q 2894 3584 3203 3211 
Q 3513 2838 3513 2113 
z
" transform="scale(0.015625)"/>
       <path id="DejaVuSans-63" d="M 3122 3366 
L 3122 2828 
Q 2878 2963 2633 3030 
Q 2388 3097 2138 3097 
Q 1578 3097 1268 2742 
Q 959 2388 959 1747 
Q 959 1106 1268 751 
Q 1578 397 2138 397 
Q 2388 397 2633 464 
Q 2878 531 3122 666 
L 3122 134 
Q 2881 22 2623 -34 
Q 2366 -91 2075 -91 
Q 1284 -91 818 406 
Q 353 903 353 1747 
Q 353 2603 823 3093 
Q 1294 3584 2113 3584 
Q 2378 3584 2631 3529 
Q 2884 3475 3122 3366 
z
" transform="scale(0.015625)"/>
       <path id="DejaVuSans-79" d="M 2059 -325 
Q 1816 -950 1584 -1140 
Q 1353 -1331 966 -1331 
L 506 -1331 
L 506 -850 
L 844 -850 
Q 1081 -850 1212 -737 
Q 1344 -625 1503 -206 
L 1606 56 
L 191 3500 
L 800 3500 
L 1894 763 
L 2988 3500 
L 3597 3500 
L 2059 -325 
z
" transform="scale(0.015625)"/>
      </defs>
      <use xlink:href="#DejaVuSans-46"/>
      <use xlink:href="#DejaVuSans-72" transform="translate(50.269531 0)"/>
      <use xlink:href="#DejaVuSans-65" transform="translate(89.132812 0)"/>
      <use xlink:href="#DejaVuSans-71" transform="translate(150.65625 0)"/>
      <use xlink:href="#DejaVuSans-75" transform="translate(214.132812 0)"/>
      <use xlink:href="#DejaVuSans-65" transform="translate(277.511719 0)"/>
      <use xlink:href="#DejaVuSans-6e" transform="translate(339.035156 0)"/>
      <use xlink:href="#DejaVuSans-63" transform="translate(402.414062 0)"/>
      <use xlink:href="#DejaVuSans-79" transform="translate(457.394531 0)"/>
     </g>
    </g>
   </g>
   <g id="patch_63">
    <path d="M 57.17 246.04 
L 57.17 26.88 
" style="fill: none; stroke: #000000; stroke-width: 0.8; stroke-linejoin: miter; stroke-linecap: square"/>
   </g>
   <g id="patch_64">
    <path d="M 709.2 246.04 
L 709.2 26.88 
" style="fill: none; stroke: #000000; stroke-width: 0.8; stroke-linejoin: miter; stroke-linecap: square"/>
   </g>
   <g id="patch_65">
    <path d="M 57.17 246.04 
L 709.2 246.04 
" style="fill: none; stroke: #000000; stroke-width: 0.8; stroke-linejoin: miter; stroke-linecap: square"/>
   </g>
   <g id="patch_66">
    <path d="M 57.17 26.88 
L 709.2 26.88 
" style="fill: none; stroke: #000000; stroke-width: 0.8; stroke-linejoin: miter; stroke-linecap: square"/>
   </g>
   <g id="text_17">
    <!-- Distribution of Temperature (F) -->
    <g transform="translate(290.542188 20.88) scale(0.12 -0.12)">
     <defs>
      <path id="DejaVuSans-44" d="M 1259 4147 
L 1259 519 
L 2022 519 
Q 2988 519 3436 956 
Q 3884 1394 3884 2338 
Q 3884 3275 3436 3711 
Q 2988 4147 2022 4147 
L 1259 4147 
z
M 628 4666 
L 1925 4666 
Q 3281 4666 3915 4102 
Q 4550 3538 4550 2338 
Q 4550 1131 3912 565 
Q 3275 0 1925 0 
L 628 0 
L 628 4666 
z
" transform="scale(0.015625)"/>
      <path id="DejaVuSans-69" d="M 603 3500 
L 1178 3500 
L 1178 0 
L 603 0 
L 603 3500 
z
M 603 4863 
L 1178 4863 
L 1178 4134 
L 603 4134 
L 603 4863 
z
" transform="scale(0.015625)"/>
      <path id="DejaVuSans-73" d="M 2834 3397 
L 2834 2853 
Q 2591 2978 2328 3040 
Q 2066 3103 1784 3103 
Q 1356 3103 1142 2972 
Q 928 2841 928 2578 
Q 928 2378 1081 2264 
Q 1234 2150 1697 2047 
L 1894 2003 
Q 2506 1872 2764 1633 
Q 3022 1394 3022 966 
Q 3022 478 2636 193 
Q 2250 -91 1575 -91 
Q 1294 -91 989 -36 
Q 684 19 347 128 
L 347 722 
Q 666 556 975 473 
Q 1284 391 1588 391 
Q 1994 391 2212 530 
Q 2431 669 2431 922 
Q 2431 1156 2273 1281 
Q 2116 1406 1581 1522 
L 1381 1569 
Q 847 1681 609 1914 
Q 372 2147 372 2553 
Q 372 3047 722 3315 
Q 1072 3584 1716 3584 
Q 2034 3584 2315 3537 
Q 2597 3491 2834 3397 
z
" transform="scale(0.015625)"/>
      <path id="DejaVuSans-62" d="M 3116 1747 
Q 3116 2381 2855 2742 
Q 2594 3103 2138 3103 
Q 1681 3103 1420 2742 
Q 1159 2381 1159 1747 
Q 1159 1113 1420 752 
Q 1681 391 2138 391 
Q 2594 391 2855 752 
Q 3116 1113 3116 1747 
z
M 1159 2969 
Q 1341 3281 1617 3432 
Q 1894 3584 2278 3584 
Q 2916 3584 3314 3078 
Q 3713 2572 3713 1747 
Q 3713 922 3314 415 
Q 2916 -91 2278 -91 
Q 1894 -91 1617 61 
Q 1341 213 1159 525 
L 1159 0 
L 581 0 
L 581 4863 
L 1159 4863 
L 1159 2969 
z
" transform="scale(0.015625)"/>
      <path id="DejaVuSans-6f" d="M 1959 3097 
Q 1497 3097 1228 2736 
Q 959 2375 959 1747 
Q 959 1119 1226 758 
Q 1494 397 1959 397 
Q 2419 397 2687 759 
Q 2956 1122 2956 1747 
Q 2956 2369 2687 2733 
Q 2419 3097 1959 3097 
z
M 1959 3584 
Q 2709 3584 3137 3096 
Q 3566 2609 3566 1747 
Q 3566 888 3137 398 
Q 2709 -91 1959 -91 
Q 1206 -91 779 398 
Q 353 888 353 1747 
Q 353 2609 779 3096 
Q 1206 3584 1959 3584 
z
" transform="scale(0.015625)"/>
      <path id="DejaVuSans-66" d="M 2375 4863 
L 2375 4384 
L 1825 4384 
Q 1516 4384 1395 4259 
Q 1275 4134 1275 3809 
L 1275 3500 
L 2222 3500 
L 2222 3053 
L 1275 3053 
L 1275 0 
L 697 0 
L 697 3053 
L 147 3053 
L 147 3500 
L 697 3500 
L 697 3744 
Q 697 4328 969 4595 
Q 1241 4863 1831 4863 
L 2375 4863 
z
" transform="scale(0.015625)"/>
     </defs>
     <use xlink:href="#DejaVuSans-44"/>
     <use xlink:href="#DejaVuSans-69" transform="translate(77.001953 0)"/>
     <use xlink:href="#DejaVuSans-73" transform="translate(104.785156 0)"/>
     <use xlink:href="#DejaVuSans-74" transform="translate(156.884766 0)"/>
     <use xlink:href="#DejaVuSans-72" transform="translate(196.09375 0)"/>
     <use xlink:href="#DejaVuSans-69" transform="translate(237.207031 0)"/>
     <use xlink:href="#DejaVuSans-62" transform="translate(264.990234 0)"/>
     <use xlink:href="#DejaVuSans-75" transform="translate(328.466797 0)"/>
     <use xlink:href="#DejaVuSans-74" transform="translate(391.845703 0)"/>
     <use xlink:href="#DejaVuSans-69" transform="translate(431.054688 0)"/>
     <use xlink:href="#DejaVuSans-6f" transform="translate(458.837891 0)"/>
     <use xlink:href="#DejaVuSans-6e" transform="translate(520.019531 0)"/>
     <use xlink:href="#DejaVuSans-20" transform="translate(583.398438 0)"/>
     <use xlink:href="#DejaVuSans-6f" transform="translate(615.185547 0)"/>
     <use xlink:href="#DejaVuSans-66" transform="translate(676.367188 0)"/>
     <use xlink:href="#DejaVuSans-20" transform="translate(711.572266 0)"/>
     <use xlink:href="#DejaVuSans-54" transform="translate(743.359375 0)"/>
     <use xlink:href="#DejaVuSans-65" transform="translate(787.443359 0)"/>
     <use xlink:href="#DejaVuSans-6d" transform="translate(848.966797 0)"/>
     <use xlink:href="#DejaVuSans-70" transform="translate(946.378906 0)"/>
     <use xlink:href="#DejaVuSans-65" transform="translate(1009.855469 0)"/>
     <use xlink:href="#DejaVuSans-72" transform="translate(1071.378906 0)"/>
     <use xlink:href="#DejaVuSans-61" transform="translate(1112.492188 0)"/>
     <use xlink:href="#DejaVuSans-74" transform="translate(1173.771484 0)"/>
     <use xlink:href="#DejaVuSans-75" transform="translate(1212.980469 0)"/>
     <use xlink:href="#DejaVuSans-72" transform="translate(1276.359375 0)"/>
     <use xlink:href="#DejaVuSans-65" transform="translate(1315.222656 0)"/>
     <use xlink:href="#DejaVuSans-20" transform="translate(1376.746094 0)"/>
     <use xlink:href="#DejaVuSans-28" transform="translate(1408.533203 0)"/>
     <use xlink:href="#DejaVuSans-46" transform="translate(1447.546875 0)"/>
     <use xlink:href="#DejaVuSans-29" transform="translate(1505.066406 0)"/>
    </g>
   </g>
  </g>
 </g>
 <defs>
  <clipPath id="p548c3b7f22">
   <rect x="57.17" y="26.88" width="652.03" height="219.16"/>
  </clipPath>
 </defs>
</svg>
